<?xml version="1.0" encoding="UTF-8" standalone="no"?>
<!-- Created with Inkscape (http://www.inkscape.org/) -->

<svg
   version="1.1"
   id="svg1"
   width="2273.3333"
   height="2273.3333"
   viewBox="0 0 2273.3333 2273.3333"
   sodipodi:docname="zaail.svg"
   inkscape:version="1.4.3 (0d15f75042, 2025-12-25)"
   xmlns:inkscape="http://www.inkscape.org/namespaces/inkscape"
   xmlns:sodipodi="http://sodipodi.sourceforge.net/DTD/sodipodi-0.dtd"
   xmlns="http://www.w3.org/2000/svg"
   xmlns:svg="http://www.w3.org/2000/svg">
  <defs
     id="defs1" />
  <sodipodi:namedview
     id="namedview1"
     pagecolor="#ffffff"
     bordercolor="#000000"
     borderopacity="0.25"
     inkscape:showpageshadow="2"
     inkscape:pageopacity="0.0"
     inkscape:pagecheckerboard="0"
     inkscape:deskcolor="#d1d1d1"
     inkscape:zoom="0.30566868"
     inkscape:cx="1230.09"
     inkscape:cy="1145.0306"
     inkscape:window-width="1900"
     inkscape:window-height="1021"
     inkscape:window-x="0"
     inkscape:window-y="0"
     inkscape:window-maximized="1"
     inkscape:current-layer="g1">
    <inkscape:page
       x="0"
       y="0"
       inkscape:label="1"
       id="page1"
       width="2273.3333"
       height="2273.3333"
       margin="0"
       bleed="0" />
  </sodipodi:namedview>
  <g
     id="g1"
     inkscape:groupmode="layer"
     inkscape:label="1">
    <path
       id="path2"
       d="m 10768.2,14051.5 c 0,0 682,-1120.4 1485.7,-2571.3 803.8,-1451 -24.3,-2470.47 -24.3,-2470.47 -72.1,-166.8 -151.5,-326.68 -236.9,-480.08 -78.7,1368.32 -1224.5,5521.85 -1224.5,5521.85 z m 4774.4,-4559.16 c -187.7,-21.68 -351.6,-136.13 -452.5,-295.86 -244.1,-386.32 -810.6,-1389.25 -1196.2,-2906.6 -440.4,-1733.28 -2111.6,-3441.79 -3458,-2231.87 -401.3,360.51 -633.2,871.99 -673.28,1409.88 -0.51,7.31 -0.98,14.92 -1.53,22.31 3504.11,859.6 3400.41,4140.74 3296.61,5621 -107.8,1537 -2182,4146.2 -2656.3,4724.4 -34.8,42.4 -103.4,19.6 -105.6,-35.2 -13.3,-326.6 -12.7,-1193.8 228.8,-2698.8 270.6,-1686.2 1146.1,-4048.24 1394.9,-4699.26 -571.3,-963.43 -1384.2,-1657.14 -2150.83,-2141.95 40.63,480.82 153.6,1058.91 403.23,1707.03 24,62.07 -61.7,105.74 -97.1,49.38 C 9812.73,7598.98 9450.74,6889.3 9312.03,5991.6 8371.8,5477.11 7601.88,5283.2 7601.88,5283.2 c 617.57,-13.2 1166.67,24.61 1654.92,104.5 -13.48,-473.6 42.22,-986.41 204.57,-1526.49 145.93,-485.62 408.01,-932.11 778.33,-1278.59 594.6,-556.53 1614.2,-1059.34 2822.9,216.17 255.1,269.22 469.5,573.71 651.8,896.72 265.2,470 675.5,1295 942.7,2302.19 387.1,1459.02 733.2,2358.39 1276.3,2059.64 74.6,-41.05 166.6,4.77 173,89.69 32.8,434.1 41.3,1415.2 -563.8,1345.31"
       style="fill:#ffffff;fill-opacity:1;fill-rule:nonzero;stroke:none"
       transform="matrix(0.13333333,0,0,-0.13333333,0,2273.3333)" />
    <path
       id="path3"
       d="m 14117.1,11063.7 c -233.4,-240.4 -342,-572.1 -374.5,-688.3 -8.8,-31.4 -8.5,-65 3.8,-95.2 100.9,-247.3 622.1,-475.55 814.7,-552.74 47.4,-18.98 101.8,-14.41 143.5,15.04 262,184.92 343.8,587.4 366.7,748.8 6.1,43.2 -5.6,87.2 -34.1,120.2 -263.5,305.3 -603.6,442.1 -762.2,492.5 -55.9,17.8 -117.1,1.7 -157.9,-40.3"
       style="fill:#ffffff;fill-opacity:1;fill-rule:nonzero;stroke:none"
       transform="matrix(0.13333333,0,0,-0.13333333,0,2273.3333)" />
    <path
       id="path4"
       d="m 14628.7,11798.5 c 0,0 345.8,288.2 95.4,1010.3 -5,14.2 -26.2,12 -27.6,-3 -21.8,-233.7 -121.2,-993.2 -455.7,-410.6 -391.5,682 -574.2,1071.7 -574.2,1071.7 0,0 450.6,-2326 962.1,-1668.4"
       style="fill:#ffffff;fill-opacity:1;fill-rule:nonzero;stroke:none"
       transform="matrix(0.13333333,0,0,-0.13333333,0,2273.3333)" />
    <path
       id="path5"
       d="m 6874.45,10072 c -200.35,-200.4 -877.81,-829.85 -739.92,-30.5 161.41,935.6 291.84,1438.7 291.84,1438.7 0,0 -1373.21,-2509.54 -391.06,-2292.27 0,0 543.48,1.45 867.07,865.67 6.41,17 -15.04,31.3 -27.93,18.4"
       style="fill:#ffffff;fill-opacity:1;fill-rule:nonzero;stroke:none"
       transform="matrix(0.13333333,0,0,-0.13333333,0,2273.3333)" />
    <path
       id="path6"
       d="m 9369.57,2944.22 c -16.8,-145.12 -105.78,-366.84 -460.59,-518.83 -638.43,-273.59 -566.32,1084.49 -521.32,1570.12 1.83,19.69 -26.76,24.29 -32.43,5.27 -457.93,-1536.09 -65.31,-2133.59 -65.31,-2133.59 0,0 347.78,-750.59 919.46,-60.9 398,480.19 308.35,926.6 223.04,1144.8 -12.26,31.53 -58.94,26.61 -62.85,-6.87"
       style="fill:#ffffff;fill-opacity:1;fill-rule:nonzero;stroke:none"
       transform="matrix(0.13333333,0,0,-0.13333333,0,2273.3333)" />
    <path
       id="path7"
       d="m 8751.45,8137.7 c -9.69,-22.43 18.67,-41.53 36.4,-24.77 433.99,409.69 348.05,349.8 1257.75,904.88 748.5,456.68 872.6,999.09 891,1214.59 2,22.9 -27.8,32.9 -41,14 -80.3,-115.6 -308.1,-358.59 -947.4,-750.5 -755,-462.89 -1092.54,-1116.95 -1196.75,-1358.2"
       style="fill:#ffffff;fill-opacity:1;fill-rule:nonzero;stroke:none"
       transform="matrix(0.13333333,0,0,-0.13333333,0,2273.3333)" />
    <path
       id="path8"
       d="m 4885.74,10558.1 c 35.67,114.1 -50.58,229.6 -170.08,229.6 h -596.75 c -738.48,-112.2 -845.51,-626.1 -855.39,-858.99 -1.68,-39.65 46.6,-58.16 73.59,-29.14 384.53,413.53 891.41,133.13 891.41,133.13 -440.59,-451.1 -1685.36,-694.34 -2022,-753.13 -25.54,-4.45 -29.33,-39.69 -5.58,-50.12 1824.02,-802.38 2496.44,725.75 2684.8,1328.65"
       style="fill:#ffffff;fill-opacity:1;fill-rule:nonzero;stroke:none"
       transform="matrix(0.13333333,0,0,-0.13333333,0,2273.3333)" />
    <path
       id="path9"
       d="m 7573.32,3446.72 -558.09,211.29 c -730.35,156.6 -1012.46,-286.21 -1104.14,-500.51 -15.58,-36.48 22.97,-70.9 58.52,-53.28 506.01,250.58 880.78,-191.21 880.78,-191.21 -571.76,-265.82 -1822.03,-52.5 -2157.66,11.68 -25.46,4.92 -41.48,-26.68 -22.96,-44.89 1421.71,-1396.28 2591.68,-205.19 2981.32,291.92 73.71,94.06 33.99,232.69 -77.77,275"
       style="fill:#ffffff;fill-opacity:1;fill-rule:nonzero;stroke:none"
       transform="matrix(0.13333333,0,0,-0.13333333,0,2273.3333)" />
    <path
       id="path10"
       d="m 11337.3,4648.09 c -18.2,-9.81 -12.2,-37.5 8.4,-39.38 1584.5,-150.19 1710.5,1177.31 1701.9,1681.8 -1.7,95.39 -96.1,161.29 -186.7,131.29 l -452.4,-149.89 c -531.8,-270.5 -483.8,-687.11 -432.8,-866.21 8.7,-30.39 49.9,-32.42 63.1,-3.59 187.7,410.19 642.5,324.88 642.5,324.88 -220.8,-452.69 -1103.5,-949.8 -1344,-1078.9"
       style="fill:#ffffff;fill-opacity:1;fill-rule:nonzero;stroke:none"
       transform="matrix(0.13333333,0,0,-0.13333333,0,2273.3333)" />
    <path
       id="path11"
       d="m 1343.55,11378.4 c 1584.57,-150.2 1710.55,1177.4 1701.92,1681.9 -1.64,95.4 -96.06,161.3 -186.64,131.3 l -452.46,-149.9 c -531.72,-270.5 -483.79,-687.1 -432.78,-866.2 8.68,-30.4 49.93,-32.4 63.09,-3.6 187.7,410.2 642.46,324.9 642.46,324.9 -220.74,-452.7 -1103.44,-949.8 -1343.91,-1078.9 -18.28,-9.8 -12.26,-37.5 8.32,-39.5"
       style="fill:#ffffff;fill-opacity:1;fill-rule:nonzero;stroke:none"
       transform="matrix(0.13333333,0,0,-0.13333333,0,2273.3333)" />
    <path
       id="path12"
       d="m 1602.11,7540.2 c -170.51,1875.46 978.05,2933.2 1964.73,3489 508.04,286.1 1062.42,481.5 1635,591.9 409.61,79 1164.68,249.1 1873.55,539.2 C 7618.59,10645 8132.42,8463.36 7447.62,6760.78 6278.52,3854.3 1894.38,4325.2 1602.11,7540.2 Z M 6976.72,4520 c 625.16,763.2 1428.9,2093.4 1266.52,5893.6 0,0 900.63,-962.62 1501.96,718.2 17.85,49.9 35.78,99.6 54.72,149.1 67.62,176 256.28,747.7 94.22,1284.8 -11.87,39.3 -69.26,36.1 -77.77,-4 -93.56,-440.6 -455.94,-1691.3 -1443.21,-880.3 0,0 -307.38,299 -596.71,823.2 323.24,193 598.86,420.2 773.86,685.5 18.6,28.1 -7.5,64.4 -39.8,54.7 -156.99,-47.2 -509.1,-143.8 -960.24,-262.3 -36.75,92.4 -71.32,188.9 -102.65,289.6 0,0 -322.89,1030.2 -1013.6,2162.9 -19.72,32.3 -69.57,22.8 -75.23,-14.7 -32.58,-214.6 -100.31,-704.1 -102.54,-1078.2 -1.13,-191.8 43.13,-380.4 128.63,-552 97.85,-196.5 263.28,-543.8 446.64,-993.3 -697.22,-177.2 -1486.79,-369.9 -2144.29,-514 C 2704.92,11848.3 1512.81,10154.5 1244.88,9001.64 957.379,7764.65 851.68,4927.7 2933.59,3756.91 c 2081.88,-1170.89 3418.01,0 4043.13,763.09"
       style="fill:#ffffff;fill-opacity:1;fill-rule:nonzero;stroke:none"
       transform="matrix(0.13333333,0,0,-0.13333333,0,2273.3333)" />
    <path
       id="path13"
       d="m 5836.05,8607.81 c -735.62,-6.36 -942.18,-1607.5 -942.18,-1607.5 -284.53,1120.39 -738.4,1047.35 -738.4,1047.35 -622.85,27.46 -701.45,-516.88 -702.15,-788.4 -0.16,-60.71 69.84,-96.02 118.48,-59.61 769.92,576.01 936.83,-369.85 936.83,-369.85 150.59,-561.79 245.08,-834.02 302.78,-965 20.15,-45.7 87.93,-34.02 92.61,15.79 64.73,685.5 298.75,1156.32 298.75,1156.32 289.22,525.12 545.16,527.04 696.45,454.61 86.76,-41.56 189.73,10.04 217.77,102.03 112.7,369.34 175.43,1018.25 -280.94,1014.26"
       style="fill:#ffffff;fill-opacity:1;fill-rule:nonzero;stroke:none"
       transform="matrix(0.13333333,0,0,-0.13333333,0,2273.3333)" />
    <path
       id="path14"
       d="m 3556.72,13272.4 c 436.25,711.2 873.94,2 873.94,2 301.53,-404.8 464.93,-594 553.4,-681.1 30.9,-30.4 81.8,0.8 69.65,42.4 -167.5,573.5 -129.65,1028.1 -129.65,1028.1 64.92,516.1 270.71,599.7 415.86,589.8 83.28,-5.7 149.81,68.9 142.93,152.1 -27.5,333.9 -184.84,877.2 -551.6,727.8 -591.09,-240.9 -244.57,-1598.2 -244.57,-1598.2 -588.48,812.3 -931.06,607.9 -931.06,607.9 -511.05,-177.4 -400,-641.5 -313.55,-860.7 19.34,-49 87.11,-55.1 114.65,-10.1"
       style="fill:#ffffff;fill-opacity:1;fill-rule:nonzero;stroke:none"
       transform="matrix(0.13333333,0,0,-0.13333333,0,2273.3333)" />
    <path
       id="path15"
       d="m 8374.26,13466.9 c 397.19,51.1 692.62,377.8 865.58,631.3 142.97,209.6 213.4,463.4 177.78,714.7 -67.11,473.7 -415.28,225 -415.28,225 0,0 -146.13,-146.1 -480.35,-134 -334.22,12.2 -18.94,341 139.38,550.7 94.61,125.3 223.94,126 312.77,106.3 49.77,-11.1 95.47,31.8 89.18,82.4 -74.61,602.6 -296.13,628.9 -464.18,550.5 -122.15,-57 -211.48,-166.3 -255.7,-293.6 -78.17,-225.2 -221.25,-691.1 -230.08,-1105.9 -9.88,-463.5 603.28,-359.9 836.8,-303.7 28.04,6.8 47.61,-26.7 27.85,-47.7 -68.24,-72.5 -204.03,-201.2 -456.02,-391.4 -319.72,-241.4 -686.64,-164.3 -843.01,-114.1 -33.39,10.8 -64.57,-21.3 -52.3,-54.2 59.14,-158.1 243.16,-481.2 747.58,-416.3"
       style="fill:#ffffff;fill-opacity:1;fill-rule:nonzero;stroke:none"
       transform="matrix(0.13333333,0,0,-0.13333333,0,2273.3333)" />
  </g>
</svg>
