<?xml version="1.0" encoding="UTF-8" standalone="no"?>
<!-- Created with Inkscape (http://www.inkscape.org/) -->

<svg
   version="1.1"
   id="svg1"
   width="2000"
   height="2000"
   viewBox="0 0 2000 2000"
   sodipodi:docname="instagram.svg"
   inkscape:version="1.4.4 (dcaf3e7d9e, 2026-05-05)"
   xmlns:inkscape="http://www.inkscape.org/namespaces/inkscape"
   xmlns:sodipodi="http://sodipodi.sourceforge.net/DTD/sodipodi-0.dtd"
   xmlns="http://www.w3.org/2000/svg"
   xmlns:svg="http://www.w3.org/2000/svg">
  <defs
     id="defs1" />
  <sodipodi:namedview
     id="namedview1"
     pagecolor="#ffffff"
     bordercolor="#000000"
     borderopacity="0.25"
     inkscape:showpageshadow="2"
     inkscape:pageopacity="0.0"
     inkscape:pagecheckerboard="0"
     inkscape:deskcolor="#d1d1d1"
     inkscape:zoom="0.22992554"
     inkscape:cx="906.81531"
     inkscape:cy="1259.1033"
     inkscape:window-width="1900"
     inkscape:window-height="1013"
     inkscape:window-x="0"
     inkscape:window-y="0"
     inkscape:window-maximized="1"
     inkscape:current-layer="svg1">
    <inkscape:page
       x="0"
       y="0"
       inkscape:label="1"
       id="page1"
       width="2000"
       height="2000"
       margin="0"
       bleed="0" />
  </sodipodi:namedview>
  <path
     id="path5"
     style="fill:#ffffff;fill-opacity:1;fill-rule:evenodd;stroke:none;stroke-width:0.437982"
     d="M 999.99219 15.197266 C 456.11293 15.197266 15.203125 456.11403 15.203125 1000.002 C 15.203125 1543.8987 456.11293 1984.8027 999.99219 1984.8027 C 1543.88 1984.8027 1984.7969 1543.8987 1984.7969 1000.002 C 1984.7969 456.11403 1543.88 15.197266 999.99219 15.197266 z M 710.35352 372.67773 L 1289.6289 372.67773 C 1475.7283 372.67773 1628.8047 525.7543 1628.8047 711.85352 L 1628.8047 1288.1562 C 1628.8047 1474.2554 1475.7283 1627.334 1289.6289 1627.334 L 710.35352 1627.334 C 524.25411 1627.334 371.17383 1474.2555 371.17383 1288.1562 L 371.17383 711.85352 C 371.17383 525.7543 524.25411 372.67773 710.35352 372.67773 z M 713.33008 480.72852 C 584.30014 480.72852 479.22852 585.80124 479.22852 714.875 L 479.22852 1285.1562 C 479.22852 1414.2257 584.30014 1519.2793 713.33008 1519.2793 L 1286.6523 1519.2793 C 1415.7259 1519.2793 1520.7539 1414.2257 1520.7539 1285.1562 L 1520.7539 714.875 C 1520.7539 585.80124 1415.7259 480.72852 1286.6523 480.72852 L 713.33008 480.72852 z M 1337.6758 591.80078 C 1376.7001 591.80078 1409.7246 624.82528 1409.7246 663.84961 C 1409.7246 702.87394 1376.7001 735.85352 1337.6758 735.85352 C 1295.6731 735.85352 1265.6289 702.87394 1265.6289 663.84961 C 1265.6289 624.82528 1295.6731 591.80078 1337.6758 591.80078 z M 998.50195 657.84961 L 1001.4805 657.84961 C 1187.5799 657.84961 1343.6777 813.90275 1343.6777 1000.002 C 1343.6777 1189.1057 1187.5799 1342.1855 1001.4805 1342.1855 L 998.50195 1342.1855 C 812.40254 1342.1855 659.32812 1189.1057 659.32812 1000.002 C 659.32812 813.90275 812.40254 657.84961 998.50195 657.84961 z M 998.50195 774.87891 C 875.42848 774.87891 773.37891 876.92859 773.37891 1000.002 C 773.37891 1126.0755 875.42848 1228.125 998.50195 1228.125 L 1001.4805 1228.125 C 1124.554 1228.125 1226.6035 1126.0755 1226.6035 1000.002 C 1226.6035 876.92859 1124.554 774.87891 1001.4805 774.87891 L 998.50195 774.87891 z " />
</svg>
