<?xml version="1.0" encoding="UTF-8" standalone="no"?>
<svg
   viewBox="0 0 24 24"
   fill="none"
   stroke="#000"
   stroke-width="2"
   stroke-linecap="round"
   stroke-linejoin="round"
   version="1.1"
   id="svg2"
   sodipodi:docname="link.svg"
   xml:space="preserve"
   inkscape:version="1.4.4 (dcaf3e7d9e, 2026-05-05)"
   xmlns:inkscape="http://www.inkscape.org/namespaces/inkscape"
   xmlns:sodipodi="http://sodipodi.sourceforge.net/DTD/sodipodi-0.dtd"
   xmlns="http://www.w3.org/2000/svg"
   xmlns:svg="http://www.w3.org/2000/svg"><defs
     id="defs2" /><sodipodi:namedview
     id="namedview2"
     pagecolor="#ffffff"
     bordercolor="#000000"
     borderopacity="0.25"
     inkscape:showpageshadow="2"
     inkscape:pageopacity="0.0"
     inkscape:pagecheckerboard="0"
     inkscape:deskcolor="#d1d1d1"
     inkscape:zoom="14.153799"
     inkscape:cx="7.0299145"
     inkscape:cy="16.991904"
     inkscape:window-width="1900"
     inkscape:window-height="1013"
     inkscape:window-x="0"
     inkscape:window-y="0"
     inkscape:window-maximized="1"
     inkscape:current-layer="svg2" /><path
     id="Vector"
     d="m 8.9699224,4.1160474 h -2.182855 c -1.358354,0 -2.038035,0 -2.556851,0.264356 -0.456374,0.232523 -0.827144,0.603293 -1.059667,1.059667 -0.264355,0.518816 -0.264355,1.198497 -0.264355,2.556851 v 9.2164976 c 0,1.358342 0,2.03721 0.264355,2.556002 0.232523,0.456338 0.603293,0.827787 1.059667,1.060261 0.518307,0.264125 1.197163,0.264125 2.552861,0.264125 h 9.2240046 c 1.355674,0 2.033572,0 2.551879,-0.264125 0.456337,-0.232474 0.828393,-0.604287 1.060867,-1.060625 0.264125,-0.518307 0.264125,-1.196447 0.264125,-2.552121 V 15.030322 M 21.09665,8.9668364 v -6.063486 m 0,0 h -6.063485 m 6.063485,0 -8.488879,8.4888796"
     stroke="#000000"
     stroke-width="2.42539"
     stroke-linecap="round"
     stroke-linejoin="round"
     style="fill:none;stroke:#ffffff;stroke-opacity:1" /></svg>
