<?xml version="1.0" encoding="UTF-8" standalone="no"?>
<!-- Created with Inkscape (http://www.inkscape.org/) -->

<svg
   version="1.1"
   id="svg1"
   width="2000"
   height="2000"
   viewBox="0 0 2000 2000"
   sodipodi:docname="menu.svg"
   inkscape:version="1.4.4 (dcaf3e7d9e, 2026-05-05)"
   xml:space="preserve"
   xmlns:inkscape="http://www.inkscape.org/namespaces/inkscape"
   xmlns:sodipodi="http://sodipodi.sourceforge.net/DTD/sodipodi-0.dtd"
   xmlns="http://www.w3.org/2000/svg"
   xmlns:svg="http://www.w3.org/2000/svg"><defs
     id="defs1" /><sodipodi:namedview
     id="namedview1"
     pagecolor="#ffffff"
     bordercolor="#000000"
     borderopacity="0.25"
     inkscape:showpageshadow="2"
     inkscape:pageopacity="0.0"
     inkscape:pagecheckerboard="0"
     inkscape:deskcolor="#d1d1d1"
     inkscape:zoom="0.15377225"
     inkscape:cx="-767.36861"
     inkscape:cy="861.6639"
     inkscape:window-width="1900"
     inkscape:window-height="1013"
     inkscape:window-x="0"
     inkscape:window-y="0"
     inkscape:window-maximized="1"
     inkscape:current-layer="svg1"><inkscape:page
       x="0"
       y="0"
       inkscape:label="1"
       id="page1"
       width="2000"
       height="2000"
       margin="0"
       bleed="0" /></sodipodi:namedview><g
     id="g1"
     transform="matrix(2.4216816,0,0,2.4216816,-821.84524,-1645.2251)"
     style="fill:#ffffff"><path
       style="fill:#ffffff"
       d="m 406.00428,1370.7928 c -29.65376,-6.3618 -51.58048,-33.3896 -51.65778,-63.6754 -0.0707,-27.7008 18.74665,-53.6124 45.26813,-62.3342 11.40015,-3.749 27.62463,-3.9752 38.7145,-0.5398 20.53609,6.3618 37.02536,22.4033 43.6472,42.4621 2.34203,7.0945 2.71179,9.8508 2.71179,20.2145 0,10.3178 -0.37414,13.1325 -2.6688,20.0785 -10.56716,31.9867 -43.25947,50.8216 -76.01504,43.7943 z m 196.32485,0.072 c -3.575,-0.7678 -10.325,-3.2702 -15,-5.5608 -6.85099,-3.3568 -10.15401,-5.8351 -17.02581,-12.7745 -13.34798,-13.4793 -18.94462,-26.9533 -18.94462,-45.6097 0,-18.684 5.60783,-32.1701 18.94462,-45.5593 9.09194,-9.1276 17.19311,-14.1262 28.52581,-17.601 5.75644,-1.765 15.98629,-1.8397 252.00001,-1.8397 h 246.00006 l 8.0784,2.7393 c 28.645,9.7132 46.9219,36.5396 45.1483,66.2675 -1.7548,29.4121 -23.0627,53.9375 -52.0664,59.9284 -6.7577,1.3958 -33.585,1.5563 -248.36816,1.4853 -202.07611,-0.067 -241.83732,-0.3039 -247.29221,-1.4755 z M 403.8956,1155.8182 c -29.85581,-7.2215 -50.99394,-35.993 -49.25253,-67.0388 1.47844,-26.3574 18.16121,-48.6811 43.44451,-58.1344 9.07309,-3.3924 27.49655,-4.2635 37.24155,-1.761 18.96836,4.8712 34.34782,17.379 43.07977,35.036 9.22007,18.644 9.1507,38.3821 -0.20207,57.5 -3.35529,6.8585 -5.82102,10.1465 -12.76801,17.0258 -9.58062,9.4873 -18.62319,14.7181 -30.10969,17.4173 -8.05201,1.8921 -23.51673,1.87 -31.43353,-0.045 z m 196.43353,0.039 c -17.51934,-4.5598 -34.24758,-17.9726 -41.89404,-33.5909 -5.38325,-10.9955 -7.10596,-18.2311 -7.10596,-29.846 0,-11.6464 1.72276,-18.851 7.16549,-29.9661 7.75922,-15.8459 24.80437,-29.4577 41.94856,-33.499 5.59407,-1.3187 36.64546,-1.5072 250.40606,-1.5201 243.75186,-0.015 244.02836,-0.013 251.49296,2.056 33.1057,9.1741 53.5328,42.7578 46.4876,76.4292 -0.8055,3.85 -3.3358,10.825 -5.6229,15.5 -5.5918,11.4301 -17.8123,23.8013 -28.8777,29.2337 -14.824,7.2776 6.3481,6.7424 -264.50006,6.6857 -208.35364,-0.043 -244.80351,-0.2601 -249.50001,-1.4825 z M 409.09252,942.45471 c -17.12814,-3.1281 -32.4587,-12.7425 -42.29225,-26.5229 -10.90221,-15.2781 -14.81698,-33.7755 -10.98055,-51.8834 3.9456,-18.6232 17.73629,-36.3248 34.69394,-44.5328 4.7147,-2.282 11.66442,-4.8043 15.44383,-5.605 32.68394,-6.9246 65.52506,12.025 76.04537,43.8789 2.3128,7.0028 2.68526,9.795 2.68526,20.1305 0,10.2947 -0.37605,13.1369 -2.64623,20 -8.54602,25.8361 -32.0271,43.7453 -58.97037,44.9772 -5.08331,0.2324 -11.37386,0.033 -13.979,-0.4425 z m 199.73661,0.3465 c -1.1,-0.2205 -4.475,-0.8848 -7.5,-1.4763 -3.025,-0.5914 -9.325,-2.8939 -14,-5.1165 -7.00229,-3.3291 -10.00225,-5.5606 -17.02581,-12.6648 -14.3848,-14.5498 -19.57779,-28.1916 -18.69982,-49.1236 0.38583,-9.1988 1.00697,-12.8746 3.10412,-18.3694 8.32244,-21.8059 26.25914,-37.4814 48.20908,-42.1315 10.43454,-2.2105 485.4122,-2.2059 495.8481,0.01 18.3453,3.8863 36.0384,17.6683 44.368,34.5604 18.0022,36.5076 0.7264,77.8163 -38.3132,91.612 l -7.9904,2.8236 -243.00006,0.1411 c -133.65001,0.078 -243.90001,-0.039 -245.00001,-0.2599 z"
       id="path1"
       sodipodi:nodetypes="ssssssssssssssscssssssssssssssssssssccssscscssscssssccsssssscsscccc" /></g></svg>
